<svg xmlns="http://www.w3.org/2000/svg" width="160" height="160" viewBox="0 0 160 160" fill="none"><defs><linearGradient id="g" x1="22" y1="22" x2="139" y2="139"><stop stop-color="#F0F5FF"/><stop offset="1" stop-color="#DDD8FF"/></linearGradient><filter id="s" x="-25%" y="-25%" width="150%" height="170%"><feDropShadow dy="7" stdDeviation="6" flood-color="#6653A8" flood-opacity=".16"/></filter></defs><g filter="url(#s)"><rect x="22" y="22" width="116" height="114" rx="31" fill="url(#g)" stroke="#B9A9F3" stroke-width="5"/><rect x="38" y="39" width="84" height="57" rx="11" fill="#fff" stroke="#8D7BE2" stroke-width="5"/><path d="M54 73c13-16 25-9 37-20 7-7 14-8 21-9" stroke="#54CBA4" stroke-width="6" stroke-linecap="round"/><circle cx="74" cy="104" r="18" fill="#F4C39F"/><path d="M58 103c2-21 31-27 37-7 2 7 0 14-4 18-7-8-17-11-30-9l-3-2Z" fill="#25364D"/><path d="M45 132c3-25 13-36 29-36 17 0 28 11 31 36H45Z" fill="#7B6BE5"/><circle cx="113" cy="109" r="13" fill="#F4C39F"/><path d="M101 108c2-15 22-19 27-5 2 5 0 10-2 13-5-6-12-8-22-7l-3-1Z" fill="#25364D"/><path d="M95 132c2-18 8-26 19-26s18 8 20 26H95Z" fill="#FFB63E"/></g></svg>