<svg xmlns="http://www.w3.org/2000/svg" width="160" height="160" viewBox="0 0 160 160" fill="none"><defs><linearGradient id="g" x1="25" y1="23" x2="137" y2="138"><stop stop-color="#EFF9FF"/><stop offset="1" stop-color="#CBEAF8"/></linearGradient><filter id="s" x="-25%" y="-25%" width="150%" height="170%"><feDropShadow dy="7" stdDeviation="6" flood-color="#367B9A" flood-opacity=".17"/></filter></defs><g filter="url(#s)"><rect x="24" y="22" width="112" height="114" rx="34" fill="url(#g)" stroke="#91D1E8" stroke-width="5"/><circle cx="80" cy="61" r="24" fill="#F5C6A2"/><path d="M57 59c2-28 42-36 49-10 3 10 0 19-4 25-8-10-21-15-38-13-2 4-4 7-7 10V59Z" fill="#26364D"/><path d="M69 72c7 6 15 6 22 0" stroke="#E66D68" stroke-width="4" stroke-linecap="round"/><circle cx="47" cy="78" r="18" fill="#F3C29E"/><path d="M31 76c3-21 30-26 35-7 2 7 0 13-3 17-7-7-16-10-29-8l-3-2Z" fill="#273750"/><circle cx="113" cy="78" r="18" fill="#F3C29E"/><path d="M97 76c3-21 30-26 35-7 2 7 0 13-3 17-7-7-16-10-29-8l-3-2Z" fill="#273750"/><path d="M48 126c3-30 14-43 32-43s29 13 32 43H48Z" fill="#4F8EF7"/><path d="M23 126c2-23 10-33 24-33 13 0 22 10 24 33H23Z" fill="#FFC247"/><path d="M89 126c2-23 10-33 24-33 13 0 22 10 24 33H89Z" fill="#FF7E91"/><path d="m127 39 4 9 10 1-8 7 2 10-8-5-9 5 3-10-8-7 10-1 4-9Z" fill="#FFC84D"/></g></svg>